# AST/ASF file generated using VICON BodyLanguage
# -----------------------------------------------
:version 1.10
:name VICON
:units
  mass 1.0
  length 0.45
  angle deg
:documentation
   .ast/.asf automatically generated from VICON data using
   VICON BodyBuilder and BodyLanguage model FoxedUp or BRILLIANT.MOD
:root
   order TX TY TZ RX RY RZ
   axis XYZ
   position 0 0 0  
   orientation 0 0 0 
:bonedata
  begin
     id 1 
     name lhipjoint
     direction 0.561001 -0.76473 0.316963 
     length 2.4722 
     axis 0 0 0  XYZ
  end
  begin
     id 2 
     name lfemur
     direction 0.34202 -0.939693 0  
     length 7.59403  
     axis 0 0 20  XYZ
    dof rx ry rz
    limits (-160.0 20.0)
           (-70.0 70.0)
           (-60.0 70.0)
  end
  begin
     id 3 
     name ltibia
     direction 0.34202 -0.939693 0   
     length 7.89655   
     axis 0 0 20   XYZ
    dof rx
    limits (-10.0 170.0)
  end
  begin
     id 4 
     name lfoot
     direction 0.061296 -0.168409 0.98381   
     length 2.73287   
     axis -90 7.62852e-016 20   XYZ
    dof rx rz
    limits (-45.0 90.0)
           (-70.0 20.0)
  end
  begin
     id 5 
     name ltoes
     direction 1.53547e-011 -4.21984e-011 1   
     length 1.37057   
     axis -90 7.62852e-016 20   XYZ
    dof rx
    limits (-90.0 20.0)
  end
  begin
     id 6 
     name rhipjoint
     direction -0.559611 -0.765599 0.317323   
     length 2.46939  
     axis 0 0 0  XYZ 
  end
  begin
     id 7 
     name rfemur
     direction -0.34202 -0.939693 0   
     length 7.53712   
     axis 0 0 -20   XYZ
    dof rx ry rz
    limits (-160.0 20.0)
           (-70.0 70.0)
           (-70.0 60.0)
  end
  begin
     id 8 
     name rtibia
     direction -0.34202 -0.939693 0   
     length 8.12549   
     axis 0 0 -20   XYZ
    dof rx
    limits (-10.0 170.0)
 end
 begin
     id 9 
     name rfoot
     direction -0.066984 -0.184037 0.980634   
     length 2.67541  
     axis -90 -7.62852e-016 -20   XYZ
    dof rx rz
    limits (-45.0 90.0)
           (-20.0 70.0)
  end
  begin
     id 10 
     name rtoes
     direction -1.53549e-011 -4.21786e-011 1   
     length 1.34085   
     axis -90 -7.62852e-016 -20   XYZ
    dof rx
    limits (-90.0 20.0)
  end
  begin
     id 11 
     name lowerback
     direction -0.0522728 0.992594 -0.109658   
     length 2.05633   
     axis 0 0 0   XYZ
    dof rx ry rz
    limits (-20.0 45.0)
           (-30.0 30.0)
           (-30.0 30.0)
  end
  begin
     id 12 
     name upperback
     direction 0.00589338 0.999977 0.00335704   
     length 2.05845   
     axis 0 0 0   XYZ
    dof rx ry rz
    limits (-20.0 45.0)
           (-30.0 30.0)
           (-30.0 30.0)
  end
  begin
     id 13 
     name thorax
     direction 0.0292928 0.998059 0.0549487   
     length 2.09281   
     axis 0 0 0   XYZ
    dof rx ry rz
    limits (-20.0 45.0)
           (-30.0 30.0)
           (-30.0 30.0)
  end
  begin
     id 14 
     name lowerneck
     direction 0.0356368 0.980775 0.191858   
     length 1.84767   
     axis 0 0 0   XYZ
    dof rx ry rz
    limits (-20.0 45.0)
           (-30.0 30.0)
           (-30.0 30.0)
  end
  begin
     id 15 
     name upperneck
     direction -0.0227605 0.98931 -0.14404   
     length 1.89582   
     axis 0 0 0   XYZ
    dof rx ry rz
    limits (-20.0 45.0)
           (-30.0 30.0)
           (-30.0 30.0)
  end
  begin
     id 16
     name head
     direction -0.00932985 0.997511 -0.0698904  
     length 1.90213  
     axis 0 0 0   XYZ
    dof rx ry rz
    limits (-20.0 45.0)
           (-30.0 30.0)
           (-30.0 30.0)
  end
  begin
     id 17 
     name lclavicle
     direction 0.873442 0.479511 0.0846686  
     length 3.41193  
     axis 0 0 0   XYZ
    dof ry rz
    limits (-20.0 10.0)
           (0.0 20.0)
  end
  begin
     id 18 
     name lhumerus
     direction 1 -4.4897e-011 -5.62117e-018   
     length 5.59864   
     axis 180 -30 -90   XYZ
    dof rx ry rz
    limits (-60.0 90.0)
           (-90.0 90.0)
           (-90.0 90.0)
  end
  begin
     id 19
     name lradius
     direction 1 -4.48966e-011 -6.26295e-027   
     length 3.59542   
     axis 180 -30 -90   XYZ
    dof rx
    limits (-10.0 170.0)
  end
  begin
     id 20
     name lwrist
     direction 1 -4.48947e-011 -1.74096e-026   
     length 1.79771   
     axis 1.04567e-014 90 90   XYZ
    dof ry
    limits (-180.0 0.0)
 end
  begin
     id 21 
     name lhand
     direction 1 -4.49085e-011 -3.48469e-026   
     length 0.572014   
     axis 2.22196e-014 90 90   XYZ
    dof rx rz
    limits (-90.0 90.0)
           (-45.0 45.0)
  end
  begin
     id 22 
     name lfingers
     direction 1 -4.48884e-011 -6.96135e-026   
     length 0.461173   
     axis 4.44383e-014 90 90   XYZ
    dof rx
    limits (0.0 90.0)
  end
  begin
     id 23
     name lthumb
     direction 0.707107 -6.34976e-011 0.707107   
     length 0.662154   
     axis -90 45 -5.4397e-014   XYZ
    dof rx rz
    limits (-45.0 45.0)
           (-45.0 45.0)
  end
  begin
     id 24 
     name rclavicle
     direction -0.890242 0.443271 0.104786   
     length 3.46753  
     axis 0 0 0   XYZ 
    dof ry rz
    limits (-10.0 20.0)
           (-20.0 0.0)
  end
  begin
     id 25 
     name rhumerus
     direction -1 -4.48963e-011 -5.41723e-018  
     length 5.8094   
     axis 180 30 90   XYZ
    dof rx ry rz
    limits (-90.0 60.0)
           (-90.0 90.0)
           (-90.0 90.0)
  end
  begin
     id 26 
     name rradius
     direction -1 -4.48958e-011 -6.51059e-027   
     length 3.66953   
     axis 180 30 90   XYZ
    dof rx
    limits (-10.0 170.0)
  end
  begin
     id 27 
     name rwrist
     direction -1 -4.48975e-011 -1.74124e-026   
     length 1.83476   
     axis 1.04567e-014 -90 -90   XYZ
    dof ry
    limits (-180.0 0.0)
  end
  begin
     id 28
     name rhand
     direction -1 -4.49013e-011 -3.48326e-026   
     length 0.57843   
     axis 2.22196e-014 -90 -90   XYZ
    dof rx rz
    limits (-90.0 90.0)
           (-45.0 45.0)
  end
  begin
     id 29
     name rfingers
     direction -1 -4.49023e-011 -6.9669e-026   
     length 0.466345   
     axis 4.44383e-014 -90 -90   XYZ
    dof rx
    limits (0.0 90.0)
  end
  begin
     id 30
     name rthumb
     direction -0.707107 -6.34926e-011 0.707107   
     length 0.669581   
     axis -90 -45 5.4397e-014   XYZ
    dof rx rz
    limits (-45.0 45.0)
           (-45.0 45.0)
  end
:hierarchy
  begin
    root lhipjoint rhipjoint lowerback
    lhipjoint lfemur
    lfemur ltibia
    ltibia lfoot
    lfoot ltoes
    rhipjoint rfemur
    rfemur rtibia
    rtibia rfoot
    rfoot rtoes
    lowerback upperback
    upperback thorax
    thorax lowerneck lclavicle rclavicle
    lowerneck upperneck
    upperneck head
    lclavicle lhumerus
    lhumerus lradius
    lradius lwrist
    lwrist lhand lthumb
    lhand lfingers
    rclavicle rhumerus
    rhumerus rradius
    rradius rwrist
    rwrist rhand rthumb
    rhand rfingers
  end

#!OML:ASF H:\SkateBoarding\Project 1\Capture day 1\Session 1\Skater.ASF
:FULLY-SPECIFIED
:DEGREES
131
root 18.5759 18.3239 25.3242 -42.5505 79.9723 -49.2179
lowerback 17.0917 -3.12825 -7.57343
upperback 1.18331 -5.52101 -0.330969
thorax -7.6023 -2.38365 5.17171
lowerneck -14.173 -13.9156 -7.55736
upperneck 33.7474 -21.8712 10.5894
head 16.7548 -8.62187 1.56601
rclavicle 4.21423e-014 -9.54166e-015
rhumerus -50.9968 12.4362 -88.3248
rradius 60.839
rwrist -2.86484
rhand -40.4503 9.94095
rfingers 7.12502
rthumb -13.4018 -19.608
lclavicle 4.21423e-014 -9.54166e-015
lhumerus -5.21968 -26.0058 80.3781
lradius 54.4957
lwrist 26.041
lhand -37.6044 -4.02091
lfingers 7.12502
lthumb -10.6577 25.6888
rfemur -39.9532 -5.44318 24.8405
rtibia 60.5874
rfoot -28.057 6.68832
rtoes -8.54692
lfemur -34.8152 -8.91149 2.67772
ltibia 62.2277
lfoot -39.4721 3.60446
ltoes -27.7146
132
root 18.5114 18.2877 25.7328 -41.4635 79.7351 -47.9208
lowerback 17.108 -3.03343 -7.68418
upperback 1.2479 -5.41489 -0.362776
thorax -7.54808 -2.3327 5.17524
lowerneck -14.1269 -13.9345 -7.79081
upperneck 33.8193 -21.8818 10.6739
head 16.8353 -8.64113 1.63506
rclavicle 5.56597e-014 4.29375e-014
rhumerus -50.856 12.4013 -88.2597
rradius 59.8578
rwrist -2.57561
rhand -40.2325 9.83073
rfingers 7.12502
rthumb -13.1919 -19.7319
lclavicle 5.56597e-014 4.29375e-014
lhumerus -5.78994 -25.399 79.9825
lradius 54.0717
lwrist 26.1526
lhand -38.4078 -3.79092
lfingers 7.12502
lthumb -11.4326 25.8774
rfemur -40.4187 -5.32247 24.9881
rtibia 61.2479
rfoot -27.8293 6.35038
rtoes -9.05097
lfemur -34.9255 -8.94143 2.83767
ltibia 62.7467
lfoot -39.4051 3.62896
ltoes -27.4153
133
root 18.4464 18.2496 26.1387 -39.6949 79.4179 -45.9253
lowerback 17.0986 -2.85175 -7.79737
upperback 1.31653 -5.19688 -0.461793
thorax -7.49745 -2.22818 5.08247
lowerneck -14.0092 -14.0068 -8.0607
upperneck 33.7792 -22.0156 10.928
head 16.8969 -8.70357 1.75545
rclavicle 1.31198e-014 -3.18055e-015
rhumerus -50.7059 12.0851 -88.0869
rradius 58.912
rwrist -2.33881
rhand -39.9269 9.92419
rfingers 7.12502
rthumb -12.8973 -19.6573
lclavicle 1.31198e-014 -3.18055e-015
lhumerus -6.29299 -25.0526 79.5737
lradius 53.604
lwrist 26.21
lhand -39.1734 -3.46228
lfingers 7.12502
lthumb -12.1708 26.1637
rfemur -40.8881 -5.10276 25.087
rtibia 61.9119
rfoot -27.5216 6.02831
rtoes -9.25262
lfemur -34.9438 -8.80434 2.90028
ltibia 63.2619
lfoot -39.4256 3.74352
ltoes -27.3114
134
root 18.3816 18.2137 26.543 -37.5472 79.0672 -43.5151
lowerback 17.0832 -2.74381 -8.02736
upperback 1.39798 -5.09498 -0.545445
thorax -7.40183 -2.17847 5.09443
lowerneck -13.9692 -13.969 -8.24992
upperneck 33.7868 -21.9605 11.0522
head 16.9375 -8.69049 1.85001
rclavicle 5.52621e-014 1.11319e-014
rhumerus -50.4868 12.0124 -87.9004
rradius 58.015
rwrist -2.04509
rhand -39.6996 9.94263
rfingers 7.12502
rthumb -12.6782 -19.6525
lclavicle 5.52621e-014 1.11319e-014
lhumerus -6.82265 -24.4534 79.1293
lradius 53.1619
lwrist 26.3081
lhand -40.0267 -2.98945
lfingers 7.12502
lthumb -12.9935 26.5859
rfemur -41.3119 -4.89923 25.1469
rtibia 62.519
rfoot -27.2255 5.53605
rtoes -10.2083
lfemur -34.8682 -8.62188 2.87487
ltibia 63.7372
lfoot -39.4541 3.78606
ltoes -27.0732
135
root 18.3163 18.1766 26.9444 -34.9864 78.6407 -40.6933
lowerback 17.0289 -2.56801 -8.23698
upperback 1.46584 -4.90131 -0.689593
thorax -7.32042 -2.08483 5.00899
lowerneck -14.0009 -13.9133 -8.19308
upperneck 33.7825 -21.8808 11.021
head 16.9162 -8.65511 1.84533
rclavicle 2.82274e-014 -9.54166e-015
rhumerus -50.3674 11.6317 -87.6306
rradius 57.2749
rwrist -1.75931
rhand -39.5478 9.88044
rfingers 7.12502
rthumb -12.5318 -19.7237
lclavicle 2.82274e-014 -9.54166e-015
lhumerus -7.27925 -24.1869 78.623
lradius 52.7285
lwrist 26.6593
lhand -40.4819 -2.33091
lfingers 7.12502
lthumb -13.4323 27.216
rfemur -41.7306 -4.64262 25.1594
rtibia 63.068
rfoot -26.9215 5.09157
rtoes -10.8433
lfemur -34.7471 -8.33351 2.76693
ltibia 64.1866
lfoot -39.4609 3.95458
ltoes -26.9469
136
root 18.2525 18.1441 27.3437 -32.739 78.0532 -38.17
lowerback 16.9558 -2.38158 -8.35978
upperback 1.53926 -4.6737 -0.814198
thorax -7.23279 -1.97812 4.88816
lowerneck -13.8428 -13.9355 -8.25746
upperneck 33.7792 -21.9097 11.0371
head 16.8937 -8.684 1.8654
rclavicle -6.36111e-015 -6.36111e-015
rhumerus -50.2824 11.2163 -87.3194
rradius 56.6628
rwrist -1.58942
rhand -39.5243 9.78332
rfingers 7.12502
rthumb -12.5092 -19.8223
lclavicle -6.36111e-015 -6.36111e-015
lhumerus -7.68993 -23.928 78.1399
lradius 52.3327
lwrist 26.984
lhand -40.8111 -1.62415
lfingers 7.12502
lthumb -13.7496 27.9015
rfemur -42.0431 -4.27394 25.2579
rtibia 63.5257
rfoot -26.6804 4.61668
rtoes -11.7342
lfemur -34.4979 -7.94344 2.76335
ltibia 64.5721
lfoot -39.483 3.79142
ltoes -26.1593
137
root 18.1869 18.1114 27.7432 -30.6979 77.3961 -35.837
lowerback 16.8979 -2.23298 -8.5538
upperback 1.61118 -4.50658 -0.884134
thorax -7.13646 -1.89852 4.88008
lowerneck -13.9184 -13.8344 -8.24662
upperneck 33.8838 -21.7624 10.9988
head 16.9368 -8.61793 1.87862
rclavicle 7.196e-014 3.49861e-014
rhumerus -50.098 10.831 -86.8329
rradius 56.068
rwrist -1.32047
rhand -39.1989 9.86793
rfingers 7.12502
rthumb -12.1954 -19.7566
lclavicle 7.196e-014 3.49861e-014
lhumerus -8.10166 -23.5285 77.6772
lradius 51.9536
lwrist 27.3108
lhand -40.9272 -0.979311
lfingers 7.12502
lthumb -13.8615 28.5388
rfemur -42.3005 -3.8089 25.3693
rtibia 63.8901
rfoot -26.4661 4.05746
rtoes -12.9365
lfemur -34.1955 -7.46401 2.76069
ltibia 64.9309
lfoot -39.5316 3.58979
ltoes -25.8976
138
root 18.1221 18.0773 28.1366 -28.4123 76.7195 -33.255
lowerback 16.8323 -2.0907 -8.70995
upperback 1.65999 -4.34738 -1.0403
thorax -7.07058 -1.8225 4.76035
lowerneck -13.8884 -13.7684 -8.22275
upperneck 34.0388 -21.6626 10.9108
head 16.9767 -8.57988 1.86598
rclavicle 1.15295e-014 -1.59028e-015
rhumerus -50.0564 10.4378 -86.4179
rradius 55.6559
rwrist -1.04664
rhand -39.3119 9.4079
rfingers 7.12502
rthumb -12.3044 -20.2101
lclavicle 1.15295e-014 -1.59028e-015
lhumerus -8.48144 -23.3501 77.1347
lradius 51.6276
lwrist 27.7748
lhand -41.0907 -0.413783
lfingers 7.12502
lthumb -14.0191 29.0935
rfemur -42.5634 -3.43568 25.3571
rtibia 64.2279
rfoot -26.1066 3.65891
rtoes -13.9785
lfemur -33.8742 -6.94353 2.62054
ltibia 65.2848
lfoot -39.6322 3.49125
ltoes -25.7077
139
root 18.0573 18.0476 28.5283 -26.5204 76.0195 -31.0214
lowerback 16.807 -1.98792 -8.80335
upperback 1.717 -4.23241 -1.20946
thorax -7.01732 -1.76917 4.60312
lowerneck -14.0434 -13.6295 -7.99578
upperneck 34.2647 -21.478 10.7256
head 17.0375 -8.4799 1.79123
rclavicle 2.98177e-014 6.36111e-015
rhumerus -50.015 10.0872 -85.9663
rradius 55.3477
rwrist -1.05106
rhand -39.3202 9.30952
rfingers 7.12502
rthumb -12.3124 -20.308
lclavicle 2.98177e-014 6.36111e-015
lhumerus -8.74773 -23.0476 76.6086
lradius 51.1172
lwrist 28.0018
lhand -40.964 -0.0186053
lfingers 7.12502
lthumb -13.8969 29.497
rfemur -42.7284 -2.84211 25.286
rtibia 64.5121
rfoot -25.8474 3.38164
rtoes -14.591
lfemur -33.5079 -6.43781 2.47882
ltibia 65.6476
lfoot -39.8211 3.26253
ltoes -25.3184
140
root 17.9883 18.0132 28.9196 -25.1925 75.2361 -29.3714
lowerback 16.8188 -1.8943 -8.83053
upperback 1.75593 -4.12007 -1.32952
thorax -7.00432 -1.71637 4.46541
lowerneck -14.147 -13.5054 -7.88859
upperneck 34.5182 -21.3045 10.5827
head 17.1302 -8.39495 1.75231
rclavicle 1.31198e-014 -2.8625e-014
rhumerus -50.02 9.73645 -85.4658
rradius 55.1934
rwrist -1.22672
rhand -39.4205 9.15631
rfingers 7.12502
rthumb -12.4091 -20.4554
lclavicle 1.31198e-014 -2.8625e-014
lhumerus -8.94929 -22.8899 75.9618
lradius 50.6738
lwrist 28.1485
lhand -40.8249 0.531404
lfingers 7.12502
lthumb -13.7629 30.0562
rfemur -42.9416 -2.32686 25.3489
rtibia 64.8176
rfoot -25.4481 3.21703
rtoes -14.9447
lfemur -33.2093 -5.76369 2.47813
ltibia 66.0679
lfoot -39.8963 3.05566
ltoes -25.1295
141
root 17.9178 17.9772 29.3058 -23.7753 74.4974 -27.6403
lowerback 16.8451 -1.84714 -8.85801
upperback 1.77182 -4.07577 -1.50087
thorax -7.01897 -1.69479 4.28815
lowerneck -14.2994 -13.3348 -7.6281
upperneck 34.817 -21.0938 10.3999
head 17.2249 -8.27535 1.68042
rclavicle 2.8625e-014 -3.49861e-014
rhumerus -50.026 9.23694 -84.9239
rradius 55.0582
rwrist -1.33209
rhand -39.4696 9.27162
rfingers 7.12502
rthumb -12.4564 -20.3372
lclavicle 2.8625e-014 -3.49861e-014
lhumerus -9.09638 -22.6666 75.3746
lradius 50.1491
lwrist 28.1874
lhand -40.6769 0.805
lfingers 7.12502
lthumb -13.6203 30.3394
rfemur -43.2041 -1.83092 25.3048
rtibia 65.1325
rfoot -25.0082 3.05408
rtoes -15.2618
lfemur -32.982 -5.12368 2.36256
ltibia 66.5211
lfoot -39.9682 2.88639
ltoes -24.9895
142
root 17.8437 17.9356 29.6867 -22.6238 73.7975 -26.2152
lowerback 16.8853 -1.8554 -8.80605
upperback 1.76839 -4.093 -1.66281
thorax -7.05895 -1.70373 4.09088
lowerneck -14.4218 -13.1783 -7.42298
upperneck 35.1126 -20.8983 10.237
head 17.3269 -8.16849 1.62267
rclavicle -5.48646e-014 -1.27222e-014
rhumerus -50.1318 8.91456 -84.3581
rradius 55.1452
rwrist -1.71852
rhand -39.7016 9.256
rfingers 7.12502
rthumb -12.6801 -20.3391
lclavicle -5.48646e-014 -1.27222e-014
lhumerus -9.21157 -22.4465 74.7693
lradius 49.6969
lwrist 28.2815
lhand -40.121 0.981699
lfingers 7.12502
lthumb -13.0844 30.5513
rfemur -43.5777 -1.44993 25.265
rtibia 65.4755
rfoot -24.4492 2.94698
rtoes -15.5859
lfemur -32.8999 -4.50738 2.25727
ltibia 67.0291
lfoot -39.9713 2.86355
ltoes -24.669
143
root 17.7694 17.8951 30.0661 -21.4893 73.0575 -24.7895
lowerback 16.8929 -1.86216 -8.74526
upperback 1.78219 -4.10372 -1.86082
thorax -7.06661 -1.71204 3.84631
lowerneck -14.4977 -13.0011 -7.34989
upperneck 35.3437 -20.7059 10.2793
head 17.4443 -8.05815 1.67411
rclavicle -3.22031e-014 -6.36111e-015
rhumerus -50.2586 8.49795 -83.7665
rradius 55.38
rwrist -2.22341
rhand -39.766 9.3479
rfingers 7.12502
rthumb -12.7422 -20.2433
lclavicle -3.22031e-014 -6.36111e-015
lhumerus -9.28862 -22.4589 74.0064
lradius 49.4212
lwrist 28.3404
lhand -41.1139 1.63737
lfingers 7.12502
lthumb -14.0413 31.1431
rfemur -43.9698 -1.04912 25.177
rtibia 65.8168
rfoot -23.8171 2.72649
rtoes -16.0453
lfemur -32.7985 -3.86402 2.10282
ltibia 67.5398
lfoot -40.0452 2.77598
ltoes -24.4404
144
root 17.6898 17.8533 30.4422 -20.7959 72.3397 -23.8016
lowerback 16.9856 -1.96887 -8.68668
upperback 1.78651 -4.25072 -1.96542
thorax -7.10746 -1.7837 3.73694
lowerneck -14.6219 -12.7388 -7.15351
upperneck 35.5822 -20.3354 10.1127
head 17.4951 -7.88715 1.65553
rclavicle -1.98785e-015 6.04305e-014
rhumerus -50.3559 8.45465 -83.2167
rradius 55.6993
rwrist -2.73156
rhand -40.0803 8.91576
rfingers 7.12502
rthumb -13.0452 -20.6563
lclavicle -1.98785e-015 6.04305e-014
lhumerus -9.41798 -22.0879 73.3303
lradius 49.1554
lwrist 28.3672
lhand -40.6491 1.64581
lfingers 7.12502
lthumb -13.5935 31.182
rfemur -44.367 -0.70067 25.1684
rtibia 66.1141
rfoot -23.1561 2.52079
rtoes -16.3827
lfemur -32.7671 -3.2327 2.03724
ltibia 68.0662
lfoot -40.0646 2.77916
ltoes -24.3436
